<svg fill="gray" height="30px" width="30px" version="1.1" id="Layer_1" 
xmlns="http://www.w3.org/2000/svg" xmlns:xlink="http://www.w3.org/1999/xlink" 
	 viewBox="0 0 512 512" xml:space="preserve">
<g>
	<g>
		<path d="M395.016,146.885h-7.869h-25.705V94.426C361.443,42.36,319.083,0,267.016,0c-7.867,0-15.509,0.973-22.82,2.794
			C236.886,0.973,229.244,0,221.377,0c-52.067,0-94.426,42.36-94.426,94.426v52.459H47.738V512h338.361h8.918h69.246V146.885
			H395.016z M345.705,94.426v52.459h-29.902V94.426c0-32.596-16.603-61.385-41.795-78.361
			C314.132,19.618,345.705,53.395,345.705,94.426z M244.197,19.123c32.294,9.806,55.869,39.848,55.869,75.303v52.459H188.328V94.426
			C188.328,58.971,211.903,28.929,244.197,19.123z M142.689,94.426c0-41.031,31.573-74.809,71.697-78.361
			C189.192,33.041,172.59,61.83,172.59,94.426v52.459h-29.902V94.426z M379.279,496.262H63.475v-33.574h315.803V496.262z
			 M379.279,446.951H63.475V162.623h63.475v32h15.738v-32h157.377v32h15.738v-32h63.475V446.951z M395.016,162.623h18.623v303.364
			l-18.623,18.623V162.623z M405.62,496.262l15.625-15.626l15.626,15.626H405.62z M448.525,485.659l-19.148-19.148V162.623h19.148
			V485.659z"/>
	</g>
</g>
</svg>